<svg version="1.1" id="Layer_1" xmlns="http://www.w3.org/2000/svg" xmlns:xlink="http://www.w3.org/1999/xlink" x="0px" y="0px"
	 width="100%" viewBox="0 0 688 688" enable-background="new 0 0 688 688" xml:space="preserve">
<path fill="#000000" opacity="1.000000" stroke="none" 
	d="
M381.651031,42.560272 
	C383.553497,41.577610 384.925201,40.197575 386.851318,40.407124 
	C388.696960,42.154167 388.087463,44.274506 388.090424,46.180645 
	C388.140961,78.841545 388.079132,111.502800 388.230194,144.163116 
	C388.249542,148.345749 386.865143,150.635986 383.171661,152.790512 
	C342.022858,176.794067 301.011749,201.033569 259.945404,225.178604 
	C240.131683,236.828140 220.334229,248.507645 200.394943,259.939026 
	C196.789337,262.006165 195.172745,264.184753 195.184097,268.484467 
	C195.317062,318.808685 195.304138,369.133484 195.164932,419.457703 
	C195.153412,423.623566 196.395279,426.007935 200.086105,428.148865 
	C258.300476,461.917328 316.412048,495.862946 374.573792,529.722290 
	C388.062866,537.575073 388.123138,537.496826 388.126190,553.023499 
	C388.131805,581.685181 388.125031,610.346802 388.108429,639.008484 
	C388.103912,646.796875 386.858276,647.574646 380.150604,643.671204 
	C321.119507,609.318970 262.103546,574.940674 203.094894,540.549866 
	C170.422775,521.508240 137.811386,502.361755 105.064095,483.450470 
	C101.076355,481.147614 99.616989,478.550934 99.623589,473.952545 
	C99.747757,387.467743 99.738388,300.982635 99.610512,214.497818 
	C99.604042,210.120499 100.917206,207.619232 104.755463,205.368912 
	C189.973846,155.406830 275.113342,105.310165 360.264008,55.232540 
	C367.300629,51.094246 374.309753,46.909233 381.651031,42.560272 
z"/>
<path fill="#000000" opacity="1.000000" stroke="none" 
	d="
M580.267944,490.000061 
	C580.265564,503.332611 580.176697,516.166077 580.317932,528.997070 
	C580.354919,532.349976 579.409485,534.553162 576.375122,536.293457 
	C547.328247,552.952515 518.349854,569.730957 489.348877,586.470093 
	C488.346252,587.048828 487.343933,587.679016 485.916779,587.421326 
	C484.005737,585.603577 484.840149,583.127869 484.837891,580.931519 
	C484.780884,524.768250 484.785034,468.604950 484.775238,412.441620 
	C484.773773,404.165863 484.766174,404.170410 476.251770,404.168610 
	C451.586578,404.163422 426.921387,404.159393 402.256195,404.143372 
	C394.985504,404.138641 394.847961,404.003448 394.845642,396.998932 
	C394.836090,368.000671 394.829437,339.002411 394.839447,310.004150 
	C394.841614,303.713867 394.969147,303.637360 401.312866,303.638947 
	C426.977936,303.645447 452.643921,303.526703 478.307220,303.740265 
	C483.324219,303.782013 484.866119,302.301331 484.855255,297.213531 
	C484.716980,232.384415 484.784210,167.554855 484.815094,102.725418 
	C484.816101,100.595177 484.462402,98.400307 485.443695,96.440865 
	C487.613037,95.284981 489.086334,96.724663 490.603180,97.589333 
	C519.262451,113.926315 547.878845,130.338593 576.583191,146.595703 
	C579.761841,148.395981 580.308655,150.812302 580.299133,154.020721 
	C580.234802,175.685898 580.266785,197.351349 580.266846,219.016724 
	C580.267212,309.177826 580.267273,399.338928 580.267944,490.000061 
z"/>
</svg>